<?xml version="1.0" encoding="UTF-8" standalone="no"?>
<!DOCTYPE svg PUBLIC "-//W3C//DTD SVG 1.1//EN"
 "http://www.w3.org/Graphics/SVG/1.1/DTD/svg11.dtd">
<!-- Generated by graphviz version 4.0.0 (20220529.0937)
 -->
<!-- Title: Tree Pages: 1 -->
<svg width="1321pt" height="446pt"
 viewBox="0.00 0.00 1321.00 446.00" xmlns="http://www.w3.org/2000/svg" xmlns:xlink="http://www.w3.org/1999/xlink">
<g id="graph0" class="graph" transform="scale(1 1) rotate(0) translate(4 442)">
<title>Tree</title>
<polygon fill="white" stroke="transparent" points="-4,4 -4,-442 1317,-442 1317,4 -4,4"/>
<!-- 0 -->
<g id="node1" class="node">
<title>0</title>
<path fill="#f7f5fe" stroke="black" d="M850.5,-438C850.5,-438 482.5,-438 482.5,-438 476.5,-438 470.5,-432 470.5,-426 470.5,-426 470.5,-352 470.5,-352 470.5,-346 476.5,-340 482.5,-340 482.5,-340 850.5,-340 850.5,-340 856.5,-340 862.5,-346 862.5,-352 862.5,-352 862.5,-426 862.5,-426 862.5,-432 856.5,-438 850.5,-438"/>
<text text-anchor="start" x="604" y="-422.8" font-family="Helvetica,sans-Serif" font-size="14.00">speechiness ≤ 0.08</text>
<text text-anchor="start" x="633" y="-407.8" font-family="Helvetica,sans-Serif" font-size="14.00">gini = 0.79</text>
<text text-anchor="start" x="610.5" y="-392.8" font-family="Helvetica,sans-Serif" font-size="14.00">samples = 33882</text>
<text text-anchor="start" x="478.5" y="-377.8" font-family="Helvetica,sans-Serif" font-size="14.00">value = [62, 187, 194, 1141, 342, 9947, 593, 2832, 74, 592</text>
<text text-anchor="start" x="490.5" y="-362.8" font-family="Helvetica,sans-Serif" font-size="14.00">1877, 341, 213, 11213, 587, 1958, 53, 203, 1103, 370]</text>
<text text-anchor="start" x="629.5" y="-347.8" font-family="Helvetica,sans-Serif" font-size="14.00">class = pop</text>
</g>
<!-- 1 -->
<g id="node2" class="node">
<title>1</title>
<path fill="#cab7f6" stroke="black" d="M650,-304C650,-304 339,-304 339,-304 333,-304 327,-298 327,-292 327,-292 327,-218 327,-218 327,-212 333,-206 339,-206 339,-206 650,-206 650,-206 656,-206 662,-212 662,-218 662,-218 662,-292 662,-292 662,-298 656,-304 650,-304"/>
<text text-anchor="start" x="435.5" y="-288.8" font-family="Helvetica,sans-Serif" font-size="14.00">danceability ≤ 0.72</text>
<text text-anchor="start" x="480" y="-273.8" font-family="Helvetica,sans-Serif" font-size="14.00">0.76</text>
<text text-anchor="start" x="473.5" y="-258.8" font-family="Helvetica,sans-Serif" font-size="14.00">19434</text>
<text text-anchor="start" x="335" y="-243.8" font-family="Helvetica,sans-Serif" font-size="14.00">[58, 154, 189, 640, 171, 2666, 496, 1709, 66, 450</text>
<text text-anchor="start" x="339" y="-228.8" font-family="Helvetica,sans-Serif" font-size="14.00">1368, 285, 196, 8791, 359, 656, 44, 88, 998, 50]</text>
<text text-anchor="start" x="482" y="-213.8" font-family="Helvetica,sans-Serif" font-size="14.00">pop</text>
</g>
<!-- 0&#45;&gt;1 -->
<g id="edge1" class="edge">
<title>0&#45;&gt;1</title>
<path fill="none" stroke="black" d="M603.92,-339.97C591.47,-330.42 578.31,-320.32 565.6,-310.57"/>
<polygon fill="black" stroke="black" points="567.39,-307.53 557.32,-304.21 563.13,-313.08 567.39,-307.53"/>
<text text-anchor="middle" x="560.59" y="-325.3" font-family="Helvetica,sans-Serif" font-size="14.00">True</text>
</g>
<!-- 13390 -->
<g id="node9" class="node">
<title>13390</title>
<path fill="#b5f4af" stroke="black" d="M986.5,-304C986.5,-304 692.5,-304 692.5,-304 686.5,-304 680.5,-298 680.5,-292 680.5,-292 680.5,-218 680.5,-218 680.5,-212 686.5,-206 692.5,-206 692.5,-206 986.5,-206 986.5,-206 992.5,-206 998.5,-212 998.5,-218 998.5,-218 998.5,-292 998.5,-292 998.5,-298 992.5,-304 986.5,-304"/>
<text text-anchor="start" x="781" y="-288.8" font-family="Helvetica,sans-Serif" font-size="14.00">speechiness ≤ 0.2</text>
<text text-anchor="start" x="829" y="-273.8" font-family="Helvetica,sans-Serif" font-size="14.00">0.7</text>
<text text-anchor="start" x="818.5" y="-258.8" font-family="Helvetica,sans-Serif" font-size="14.00">14448</text>
<text text-anchor="start" x="688.5" y="-243.8" font-family="Helvetica,sans-Serif" font-size="14.00">[4, 33, 5, 501, 171, 7281, 97, 1123, 8, 142, 509</text>
<text text-anchor="start" x="704" y="-228.8" font-family="Helvetica,sans-Serif" font-size="14.00">56, 17, 2422, 228, 1302, 9, 115, 105, 320]</text>
<text text-anchor="start" x="816" y="-213.8" font-family="Helvetica,sans-Serif" font-size="14.00">hip hop</text>
</g>
<!-- 0&#45;&gt;13390 -->
<g id="edge8" class="edge">
<title>0&#45;&gt;13390</title>
<path fill="none" stroke="black" d="M729.45,-339.97C742.09,-330.33 755.45,-320.13 768.35,-310.29"/>
<polygon fill="black" stroke="black" points="770.48,-313.06 776.31,-304.21 766.24,-307.5 770.48,-313.06"/>
<text text-anchor="middle" x="772.98" y="-325.29" font-family="Helvetica,sans-Serif" font-size="14.00">False</text>
</g>
<!-- 2 -->
<g id="node3" class="node">
<title>2</title>
<path fill="#bea5f3" stroke="black" d="M315,-170C315,-170 12,-170 12,-170 6,-170 0,-164 0,-158 0,-158 0,-84 0,-84 0,-78 6,-72 12,-72 12,-72 315,-72 315,-72 321,-72 327,-78 327,-84 327,-84 327,-158 327,-158 327,-164 321,-170 315,-170"/>
<text text-anchor="start" x="94" y="-154.8" font-family="Helvetica,sans-Serif" font-size="14.00">artist_followers ≤ 0.01</text>
<text text-anchor="start" x="149" y="-139.8" font-family="Helvetica,sans-Serif" font-size="14.00">0.72</text>
<text text-anchor="start" x="142.5" y="-124.8" font-family="Helvetica,sans-Serif" font-size="14.00">13961</text>
<text text-anchor="start" x="8" y="-109.8" font-family="Helvetica,sans-Serif" font-size="14.00">[56, 116, 180, 456, 85, 1203, 358, 1201, 60, 340</text>
<text text-anchor="start" x="12" y="-94.8" font-family="Helvetica,sans-Serif" font-size="14.00">898, 282, 169, 6986, 264, 330, 31, 24, 909, 13]</text>
<text text-anchor="start" x="151" y="-79.8" font-family="Helvetica,sans-Serif" font-size="14.00">pop</text>
</g>
<!-- 1&#45;&gt;2 -->
<g id="edge2" class="edge">
<title>1&#45;&gt;2</title>
<path fill="none" stroke="black" d="M374.07,-205.97C347.86,-195.52 320.02,-184.42 293.46,-173.83"/>
<polygon fill="black" stroke="black" points="294.71,-170.56 284.12,-170.1 292.11,-177.06 294.71,-170.56"/>
</g>
<!-- 9421 -->
<g id="node6" class="node">
<title>9421</title>
<path fill="#f3eefd" stroke="black" d="M643.5,-170C643.5,-170 357.5,-170 357.5,-170 351.5,-170 345.5,-164 345.5,-158 345.5,-158 345.5,-84 345.5,-84 345.5,-78 351.5,-72 357.5,-72 357.5,-72 643.5,-72 643.5,-72 649.5,-72 655.5,-78 655.5,-84 655.5,-84 655.5,-158 655.5,-158 655.5,-164 649.5,-170 643.5,-170"/>
<text text-anchor="start" x="431" y="-154.8" font-family="Helvetica,sans-Serif" font-size="14.00">artist_followers ≤ 0.01</text>
<text text-anchor="start" x="490" y="-139.8" font-family="Helvetica,sans-Serif" font-size="14.00">0.8</text>
<text text-anchor="start" x="483.5" y="-124.8" font-family="Helvetica,sans-Serif" font-size="14.00">5473</text>
<text text-anchor="start" x="353.5" y="-109.8" font-family="Helvetica,sans-Serif" font-size="14.00">[2, 38, 9, 184, 86, 1463, 138, 508, 6, 110, 470</text>
<text text-anchor="start" x="386" y="-94.8" font-family="Helvetica,sans-Serif" font-size="14.00">3, 27, 1805, 95, 326, 13, 64, 89, 37]</text>
<text text-anchor="start" x="488" y="-79.8" font-family="Helvetica,sans-Serif" font-size="14.00">pop</text>
</g>
<!-- 1&#45;&gt;9421 -->
<g id="edge5" class="edge">
<title>1&#45;&gt;9421</title>
<path fill="none" stroke="black" d="M496.68,-205.97C497.06,-197.69 497.45,-189 497.84,-180.48"/>
<polygon fill="black" stroke="black" points="501.35,-180.36 498.31,-170.21 494.36,-180.04 501.35,-180.36"/>
</g>
<!-- 3 -->
<g id="node4" class="node">
<title>3</title>
<path fill="#c0c0c0" stroke="black" d="M142.5,-36C142.5,-36 112.5,-36 112.5,-36 106.5,-36 100.5,-30 100.5,-24 100.5,-24 100.5,-12 100.5,-12 100.5,-6 106.5,0 112.5,0 112.5,0 142.5,0 142.5,0 148.5,0 154.5,-6 154.5,-12 154.5,-12 154.5,-24 154.5,-24 154.5,-30 148.5,-36 142.5,-36"/>
<text text-anchor="middle" x="127.5" y="-14.3" font-family="Helvetica,sans-Serif" font-size="14.00">(...)</text>
</g>
<!-- 2&#45;&gt;3 -->
<g id="edge3" class="edge">
<title>2&#45;&gt;3</title>
<path fill="none" stroke="black" d="M146.34,-71.87C143.13,-62.86 139.89,-53.76 137.02,-45.71"/>
<polygon fill="black" stroke="black" points="140.27,-44.39 133.61,-36.15 133.67,-46.74 140.27,-44.39"/>
</g>
<!-- 5292 -->
<g id="node5" class="node">
<title>5292</title>
<path fill="#c0c0c0" stroke="black" d="M214.5,-36C214.5,-36 184.5,-36 184.5,-36 178.5,-36 172.5,-30 172.5,-24 172.5,-24 172.5,-12 172.5,-12 172.5,-6 178.5,0 184.5,0 184.5,0 214.5,0 214.5,0 220.5,0 226.5,-6 226.5,-12 226.5,-12 226.5,-24 226.5,-24 226.5,-30 220.5,-36 214.5,-36"/>
<text text-anchor="middle" x="199.5" y="-14.3" font-family="Helvetica,sans-Serif" font-size="14.00">(...)</text>
</g>
<!-- 2&#45;&gt;5292 -->
<g id="edge4" class="edge">
<title>2&#45;&gt;5292</title>
<path fill="none" stroke="black" d="M180.66,-71.87C183.87,-62.86 187.11,-53.76 189.98,-45.71"/>
<polygon fill="black" stroke="black" points="193.33,-46.74 193.39,-36.15 186.73,-44.39 193.33,-46.74"/>
</g>
<!-- 9422 -->
<g id="node7" class="node">
<title>9422</title>
<path fill="#c0c0c0" stroke="black" d="M479.5,-36C479.5,-36 449.5,-36 449.5,-36 443.5,-36 437.5,-30 437.5,-24 437.5,-24 437.5,-12 437.5,-12 437.5,-6 443.5,0 449.5,0 449.5,0 479.5,0 479.5,0 485.5,0 491.5,-6 491.5,-12 491.5,-12 491.5,-24 491.5,-24 491.5,-30 485.5,-36 479.5,-36"/>
<text text-anchor="middle" x="464.5" y="-14.3" font-family="Helvetica,sans-Serif" font-size="14.00">(...)</text>
</g>
<!-- 9421&#45;&gt;9422 -->
<g id="edge6" class="edge">
<title>9421&#45;&gt;9422</title>
<path fill="none" stroke="black" d="M483.34,-71.87C480.13,-62.86 476.89,-53.76 474.02,-45.71"/>
<polygon fill="black" stroke="black" points="477.27,-44.39 470.61,-36.15 470.67,-46.74 477.27,-44.39"/>
</g>
<!-- 11537 -->
<g id="node8" class="node">
<title>11537</title>
<path fill="#c0c0c0" stroke="black" d="M551.5,-36C551.5,-36 521.5,-36 521.5,-36 515.5,-36 509.5,-30 509.5,-24 509.5,-24 509.5,-12 509.5,-12 509.5,-6 515.5,0 521.5,0 521.5,0 551.5,0 551.5,0 557.5,0 563.5,-6 563.5,-12 563.5,-12 563.5,-24 563.5,-24 563.5,-30 557.5,-36 551.5,-36"/>
<text text-anchor="middle" x="536.5" y="-14.3" font-family="Helvetica,sans-Serif" font-size="14.00">(...)</text>
</g>
<!-- 9421&#45;&gt;11537 -->
<g id="edge7" class="edge">
<title>9421&#45;&gt;11537</title>
<path fill="none" stroke="black" d="M517.66,-71.87C520.87,-62.86 524.11,-53.76 526.98,-45.71"/>
<polygon fill="black" stroke="black" points="530.33,-46.74 530.39,-36.15 523.73,-44.39 530.33,-46.74"/>
</g>
<!-- 13391 -->
<g id="node10" class="node">
<title>13391</title>
<path fill="#dafad7" stroke="black" d="M973.5,-170C973.5,-170 695.5,-170 695.5,-170 689.5,-170 683.5,-164 683.5,-158 683.5,-158 683.5,-84 683.5,-84 683.5,-78 689.5,-72 695.5,-72 695.5,-72 973.5,-72 973.5,-72 979.5,-72 985.5,-78 985.5,-84 985.5,-84 985.5,-158 985.5,-158 985.5,-164 979.5,-170 973.5,-170"/>
<text text-anchor="start" x="783.5" y="-154.8" font-family="Helvetica,sans-Serif" font-size="14.00">loudness ≤ 0.83</text>
<text text-anchor="start" x="820" y="-139.8" font-family="Helvetica,sans-Serif" font-size="14.00">0.76</text>
<text text-anchor="start" x="817.5" y="-124.8" font-family="Helvetica,sans-Serif" font-size="14.00">6497</text>
<text text-anchor="start" x="691.5" y="-109.8" font-family="Helvetica,sans-Serif" font-size="14.00">[3, 22, 4, 203, 93, 2609, 73, 484, 6, 104, 355</text>
<text text-anchor="start" x="715.5" y="-94.8" font-family="Helvetica,sans-Serif" font-size="14.00">52, 10, 1636, 101, 496, 8, 66, 80, 92]</text>
<text text-anchor="start" x="811" y="-79.8" font-family="Helvetica,sans-Serif" font-size="14.00">hip hop</text>
</g>
<!-- 13390&#45;&gt;13391 -->
<g id="edge9" class="edge">
<title>13390&#45;&gt;13391</title>
<path fill="none" stroke="black" d="M837.68,-205.97C837.37,-197.69 837.04,-189 836.72,-180.48"/>
<polygon fill="black" stroke="black" points="840.2,-180.07 836.33,-170.21 833.21,-180.34 840.2,-180.07"/>
</g>
<!-- 18018 -->
<g id="node13" class="node">
<title>18018</title>
<path fill="#9bf194" stroke="black" d="M1301,-170C1301,-170 1016,-170 1016,-170 1010,-170 1004,-164 1004,-158 1004,-158 1004,-84 1004,-84 1004,-78 1010,-72 1016,-72 1016,-72 1301,-72 1301,-72 1307,-72 1313,-78 1313,-84 1313,-84 1313,-158 1313,-158 1313,-164 1307,-170 1301,-170"/>
<text text-anchor="start" x="1089" y="-154.8" font-family="Helvetica,sans-Serif" font-size="14.00">artist_followers ≤ 0.02</text>
<text text-anchor="start" x="1144" y="-139.8" font-family="Helvetica,sans-Serif" font-size="14.00">0.63</text>
<text text-anchor="start" x="1141.5" y="-124.8" font-family="Helvetica,sans-Serif" font-size="14.00">7951</text>
<text text-anchor="start" x="1012" y="-109.8" font-family="Helvetica,sans-Serif" font-size="14.00">[1, 11, 1, 298, 78, 4672, 24, 639, 2, 38, 154, 4</text>
<text text-anchor="start" x="1056" y="-94.8" font-family="Helvetica,sans-Serif" font-size="14.00">7, 786, 127, 806, 1, 49, 25, 228]</text>
<text text-anchor="start" x="1135" y="-79.8" font-family="Helvetica,sans-Serif" font-size="14.00">hip hop</text>
</g>
<!-- 13390&#45;&gt;18018 -->
<g id="edge12" class="edge">
<title>13390&#45;&gt;18018</title>
<path fill="none" stroke="black" d="M955.57,-205.97C980.72,-195.57 1007.42,-184.51 1032.92,-173.97"/>
<polygon fill="black" stroke="black" points="1034.35,-177.16 1042.25,-170.1 1031.67,-170.69 1034.35,-177.16"/>
</g>
<!-- 13392 -->
<g id="node11" class="node">
<title>13392</title>
<path fill="#c0c0c0" stroke="black" d="M813.5,-36C813.5,-36 783.5,-36 783.5,-36 777.5,-36 771.5,-30 771.5,-24 771.5,-24 771.5,-12 771.5,-12 771.5,-6 777.5,0 783.5,0 783.5,0 813.5,0 813.5,0 819.5,0 825.5,-6 825.5,-12 825.5,-12 825.5,-24 825.5,-24 825.5,-30 819.5,-36 813.5,-36"/>
<text text-anchor="middle" x="798.5" y="-14.3" font-family="Helvetica,sans-Serif" font-size="14.00">(...)</text>
</g>
<!-- 13391&#45;&gt;13392 -->
<g id="edge10" class="edge">
<title>13391&#45;&gt;13392</title>
<path fill="none" stroke="black" d="M817.34,-71.87C814.13,-62.86 810.89,-53.76 808.02,-45.71"/>
<polygon fill="black" stroke="black" points="811.27,-44.39 804.61,-36.15 804.67,-46.74 811.27,-44.39"/>
</g>
<!-- 16685 -->
<g id="node12" class="node">
<title>16685</title>
<path fill="#c0c0c0" stroke="black" d="M885.5,-36C885.5,-36 855.5,-36 855.5,-36 849.5,-36 843.5,-30 843.5,-24 843.5,-24 843.5,-12 843.5,-12 843.5,-6 849.5,0 855.5,0 855.5,0 885.5,0 885.5,0 891.5,0 897.5,-6 897.5,-12 897.5,-12 897.5,-24 897.5,-24 897.5,-30 891.5,-36 885.5,-36"/>
<text text-anchor="middle" x="870.5" y="-14.3" font-family="Helvetica,sans-Serif" font-size="14.00">(...)</text>
</g>
<!-- 13391&#45;&gt;16685 -->
<g id="edge11" class="edge">
<title>13391&#45;&gt;16685</title>
<path fill="none" stroke="black" d="M851.66,-71.87C854.87,-62.86 858.11,-53.76 860.98,-45.71"/>
<polygon fill="black" stroke="black" points="864.33,-46.74 864.39,-36.15 857.73,-44.39 864.33,-46.74"/>
</g>
<!-- 18019 -->
<g id="node14" class="node">
<title>18019</title>
<path fill="#c0c0c0" stroke="black" d="M1137.5,-36C1137.5,-36 1107.5,-36 1107.5,-36 1101.5,-36 1095.5,-30 1095.5,-24 1095.5,-24 1095.5,-12 1095.5,-12 1095.5,-6 1101.5,0 1107.5,0 1107.5,0 1137.5,0 1137.5,0 1143.5,0 1149.5,-6 1149.5,-12 1149.5,-12 1149.5,-24 1149.5,-24 1149.5,-30 1143.5,-36 1137.5,-36"/>
<text text-anchor="middle" x="1122.5" y="-14.3" font-family="Helvetica,sans-Serif" font-size="14.00">(...)</text>
</g>
<!-- 18018&#45;&gt;18019 -->
<g id="edge13" class="edge">
<title>18018&#45;&gt;18019</title>
<path fill="none" stroke="black" d="M1141.34,-71.87C1138.13,-62.86 1134.89,-53.76 1132.02,-45.71"/>
<polygon fill="black" stroke="black" points="1135.27,-44.39 1128.61,-36.15 1128.67,-46.74 1135.27,-44.39"/>
</g>
<!-- 20714 -->
<g id="node15" class="node">
<title>20714</title>
<path fill="#c0c0c0" stroke="black" d="M1209.5,-36C1209.5,-36 1179.5,-36 1179.5,-36 1173.5,-36 1167.5,-30 1167.5,-24 1167.5,-24 1167.5,-12 1167.5,-12 1167.5,-6 1173.5,0 1179.5,0 1179.5,0 1209.5,0 1209.5,0 1215.5,0 1221.5,-6 1221.5,-12 1221.5,-12 1221.5,-24 1221.5,-24 1221.5,-30 1215.5,-36 1209.5,-36"/>
<text text-anchor="middle" x="1194.5" y="-14.3" font-family="Helvetica,sans-Serif" font-size="14.00">(...)</text>
</g>
<!-- 18018&#45;&gt;20714 -->
<g id="edge14" class="edge">
<title>18018&#45;&gt;20714</title>
<path fill="none" stroke="black" d="M1175.66,-71.87C1178.87,-62.86 1182.11,-53.76 1184.98,-45.71"/>
<polygon fill="black" stroke="black" points="1188.33,-46.74 1188.39,-36.15 1181.73,-44.39 1188.33,-46.74"/>
</g>
</g>
</svg>
